<svg viewBox="0 0 512 512" xmlns="http://www.w3.org/2000/svg" xmlns:xlink="http://www.w3.org/1999/xlink"><filter id="a" color-interpolation-filters="sRGB" height="1.1145" width="1.1179" x="-.058956" y="-.057229"><feGaussianBlur stdDeviation="10.730927"/></filter><path d="m275.04 35.006c-.59862.000623-1.122.0032-1.7168.0039-2.9975.0036-5.7225.01349-8.6172.01953-4.9575.01038-9.8737.02177-14.498.03906-3.4692.01294-6.6365.0302-9.8984.04687-3.5569.0182-7.0599.03612-10.35.05859-3.229.02204-6.2258.04626-9.1758.07227-3.0174.02659-5.8523.05538-8.5566.08594-2.6.02938-5.0656.0589-7.3555.0918-2.2936.03289-4.2897.06922-6.2539.10547-2.3104.04278-4.7451.08362-6.5664.13086-.27015.007-.52608.01441-.78515.02148-2.5617.07018-4.6171.14364-6.0312.22266-.39545.02195-.6845.04576-.98633.06836-.1635.01234-.404.02458-.53906.03711-.13141.01219-.28844.02474-.39258.03711-.056.0066-.0923.01293-.14063.01953-.0754.01048-.16882.02065-.22461.03125-.0298.0057-.0579.0099-.082.01563-.0587.0136-.0713.02918-.0977.04297-.0185.01037-.0723.02077-.0723.03125-.00009.000694-.006.0013-.006.002 0 .02654.0396.07303.0586.10938.0122.02236.0161.04055.0352.06641.0394.055.1016.12052.17188.19141.0158.01573.0316.03235.0488.04883.12188.11769.33762.28224.5332.4375.17443.13777.36702.28408.5957.44922.26245.19029.53746.38842.86914.61328.15358.10383.33837.22133.50586.33203 3.9368 2.6085 11.634 7.071 20.549 11.834 105.57 56.407 187.61 123.54 232.8 190.51 10.615 15.732 24.61 43.119 29.227 57.197 1.1162 3.4044 2.415 6.4214 3.4648 8.2031.41848.71021.7966 1.2242 1.1094 1.4883.0747.0634.14608.11027.21289.14453.003.001.005.005.008.006.0717.0357.13959.0566.20117.0566.0129 0 .0263-.0446.0391-.0605.0128-.0186.0245-.0277.0371-.0625.0225-.057.0445-.15079.0664-.25781.001-.007.004-.0141.006-.0215.00058-.003.001-.0106.002-.0137.0356-.18264.0694-.52895.10351-.84179.021-.19863.0401-.39656.0605-.64453.0364-.43064.0728-.93827.10742-1.5215.006-.10339.0116-.21623.0176-.32422.11767-2.0872.22047-5.3506.3164-9.1484.0218-.88294.0419-1.8725.0625-2.8418.3537-16.257.53533-44.663.51563-82.188.00061.42597.003.91397.004 1.3379-.00023-.56593-.004-1.242-.004-1.8106-.006-9.9057-.0223-20.336-.0566-31.416-.006-2.2203-.004-4.0686-.0117-6.3496l-.48463-136.15h-.004v-.002l-145.57-.48241c-.003-.000011-.006.000011-.01 0-10.008-.03319-19.789-.05448-29.242-.06445-.00067 0-.001.000001-.002 0-8.2717-.0087-16.292-.01-23.996-.002zm-231.14 20.475c-1.4655.0438-2.5282.17531-3.125.4043-.18496.07098-.35923.18541-.52344.37305-.08163.09328-.16155.20397-.23828.33789-.000297.000517.000297.0014 0 .002-.07675.13414-.15066.28995-.22266.47266-.000244.000618.000243.0013 0 .002-.07202.18296-.14353.39138-.21094.63086-.000188.000667.000188.0013 0 .002-.06744.23974-.13234.51024-.19531.81445-.000143.00069.000142.0013 0 .002-.12611.60952-.2444 1.3558-.35352 2.2715-.000092.000768.000092.0012 0 .002-.10913.91612-.20938 2.0013-.30273 3.2871-.000055.000758.000055.0012 0 .002-.09336 1.2862-.17903 2.7727-.25781 4.4922-.000034.000745.000034.0012 0 .002-.07879 1.7199-.15136 3.672-.2168 5.8887-.000021.000734.000022.0012 0 .002-.06543 2.217-.12444 4.6972-.17773 7.4746-.000028.0015.000028.0025 0 .0039-.05328 2.7772-.10022 5.8511-.14258 9.252-.000009.000718.000009.0012 0 .002-.29332 23.55-.3408 63.051-.3418 128.55-.00067-1.7494-.0037-3.388-.0039-5.1504-.000154 2.5919-.002 4.4649-.002 7.1426 0 90.553.57298 165.22 1.2754 165.92.21962.21962.49184.38409.83008.48828.16639.0513.34864.0878.54883.10937 2.627.28936 8.3197-2.0393 20.908-8.3144h.002c32.901-16.401 85.4-55.666 144.17-107.83 31.572-28.025 87.902-82.825 102.15-98.918.00055.00066.001.001.002.002.0308-.0348.0516-.0612.082-.0957.4983-.56404.96371-1.0984 1.3535-1.5625.40973-.48778.76176-.92025 1.0449-1.291.006-.007.0138-.0179.0195-.0254.001-.001.00087-.002.002-.004.22086-.29009.37927-.52082.51758-.73437.0466-.0714.11914-.16786.15625-.23047.0366-.0621.0627-.11262.0898-.16601.0244-.0477.0557-.10218.0723-.14259.0343-.0838.0513-.15195.0527-.20508.00006-.002.002-.006.002-.008.0003-.11996-.0306-.26276-.0625-.40625-.003-.0123-.00094-.0226-.004-.0352-.00031-.001-.002-.003-.002-.004-.0373-.15555-.0992-.32857-.17188-.50977-2.6697-6.6556-28.797-30.233-48.469-43.455-39.315-26.425-94.069-48.089-150.46-59.527-20.705-4.2003-42.705-7.5063-56.75-8.7695-1.1499-.10342-2.2439-.19433-3.2812-.26953-.01987-.0014-.03876-.0025-.05859-.0039-.03046-.0022-.05558-.0037-.08594-.0059-1.0208-.07305-1.9904-.13362-2.8906-.17773-.92101-.04513-1.7939-.07828-2.5781-.0918-.77597-.01338-1.5167-.01888-2.1484 0zm290.08 135.54c-4.126 0-70.622 67.207-91.365 92.342-35.622 43.162-61.345 79.792-88.008 125.32-13.638 23.287-27.781 50.674-33.881 64.891-.0001.00023-.002-.00023-.002 0-.01.0228-.0157.0398-.0254.0625-.52974 1.236-.99554 2.3658-1.3965 3.3887-.0345.0876-.0739.18156-.10742.26758-.35115.90483-.63614 1.6978-.87305 2.4102-.0564.16802-.13177.36647-.18164.52344-.0962.3061-.18748.60336-.25781.86523-.0146.0536-.0314.11038-.0449.16211-.0548.21313-.0932.40167-.12891.58203-.003.0144-.007.0288-.01.043-.0171.0866-.0383.18301-.0508.26172-.004.0259-.0121.0589-.0156.084-.0153.11024-.0122.18815-.0176.28125-.0181.2794-.01.50922.0644.62891.75879 1.2278 58.683 1.8809 166.89 1.8809h165.73v-.01h.008l.002-6.0859c.00015.13396.004.26839.004.40234v-10c0-25.886-2.8016-52.17-8.1406-78.061-.53356-2.5876-1.0918-5.1711-1.6758-7.75-.00031-.001-.002-.003-.002-.004-.92954-4.1042-1.9405-8.1925-2.9961-12.27-.27162-1.0491-.5287-2.1014-.80859-3.1484-.68346-2.5569-1.3926-5.1069-2.125-7.6504-.00034-.001.00035-.003 0-.004-.33655-1.1688-.69618-2.3304-1.043-3.4961-1.1632-3.91-2.3673-7.8082-3.6445-11.68-.82856-2.5117-1.6808-5.0163-2.5566-7.5098-.00048-.001-.001-.003-.002-.004-.8759-2.4935-1.7746-4.9775-2.6973-7.4512-.00051-.001-.001-.003-.002-.004-.21394-.57355-.44177-1.1404-.65821-1.7129-1.4763-3.9046-3.0083-7.7837-4.5996-11.633-.18834-.45554-.36671-.91638-.55664-1.3711-.00057-.001-.001-.003-.002-.004-.33506-.80216-.68733-1.595-1.0273-2.3945-.69049-1.6236-1.3752-3.2489-2.0859-4.8613-1.0598-2.4043-2.1436-4.7956-3.248-7.1738-.00086-.002-.001-.004-.002-.006-1.1047-2.3787-2.232-4.7428-3.3809-7.0938-.00064-.001-.001-.003-.002-.004-1.1489-2.351-2.3192-4.6881-3.5117-7.0098-.00067-.001-.001-.003-.002-.004-1.1923-2.3212-2.4072-4.6277-3.6426-6.918-.00096-.002-.00099-.004-.002-.006-1.2357-2.2908-2.4932-4.5639-3.7715-6.8223-.00072-.001-.001-.003-.002-.004-1.2784-2.2583-2.578-4.5003-3.8984-6.7246-.00074-.001-.001-.003-.002-.004-3.9628-6.6753-8.1149-13.193-12.447-19.533-.00081-.001-.001-.003-.002-.004-1.4436-2.1126-2.907-4.2052-4.3906-6.2774-.00083-.001-.001-.003-.002-.004-1.4844-2.0733-2.9897-4.1269-4.5137-6.1582-15.433-20.571-35.95-43.549-38.883-43.549z" filter="url(#a)" opacity=".3" transform="matrix(1.0209 0 0 1.0209 -5.3507 -9.4393)"/><path d="m454.35 469.69c0-84.561-29.272-173.29-79.058-239.65-15.755-21-36.701-44.459-39.695-44.459-4.2122 0-72.098 68.611-93.275 94.27-36.366 44.064-62.626 81.459-89.845 127.94-19.132 32.668-39.318 73.37-37.693 75.999.77463 1.2534 59.907 1.9197 170.38 1.9197h169.18zm-397.28-91.242c33.588-16.744 87.183-56.829 147.18-110.08 37.093-32.926 107.74-102.12 107.75-105.54.013-5.0668-28.535-31.095-49.726-45.338-40.136-26.977-96.033-49.092-153.6-60.77-32.167-6.5256-67.526-10.97-72.4-9.0998-3.0154 1.1571-3.2492 13.343-3.2492 169.33 0 92.443.58669 168.66 1.3038 169.38 1.7839 1.7839 6.9449-.004 22.745-7.8801zm421.82-212.59-.49363-139-148.62-.49284c-81.741-.27107-148.62.24142-148.62 1.1388 0 .89742 10.735 7.367 23.856 14.377 107.78 57.585 191.53 126.12 237.66 194.49 10.837 16.06 25.124 44.021 29.835 58.393 1.8213 5.5552 4.1133 10.1 5.0935 10.1 1.0814 0 1.5879-54.643 1.2883-139z" fill="#4a88f1" stroke-width="1.9238"/><g stroke-width="1.9239"><path d="m196.22 26.572c-9.3638.18228-15.059.40049-15.059.65203 0 .89743 10.736 7.3668 23.856 14.377 107.78 57.585 191.53 126.11 237.66 194.49 10.837 16.06 25.124 44.021 29.836 58.394 1.8213 5.5553 4.1146 10.1 5.0946 10.1.86067 0 1.348-34.988 1.3638-91.646-.0682 50.792-.55428 81.437-1.3638 81.437-.98007 0-3.2733-4.5443-5.0946-10.1-4.7122-14.373-18.998-42.334-29.836-58.394-46.136-68.37-129.88-136.91-237.66-194.49-3.1089-1.661-6.0676-3.286-8.7975-4.8195zm112.31 130.31c-14.535 16.423-72.052 72.377-104.29 100.99-59.996 53.254-113.59 93.341-147.18 110.09-15.8 7.8758-20.962 9.6642-22.745 7.8803-.70934-.70931-1.2876-75.374-1.3-166.47-.000158 2.646-.002 4.5584-.002 7.292 0 92.445.58501 168.67 1.3021 169.38 1.784 1.784 6.9453-.004 22.745-7.8803 33.589-16.743 87.183-56.83 147.18-110.09 37.093-32.926 107.74-102.12 107.75-105.54.003-1.0587-1.2979-3.0685-3.4615-5.659zm-190.64 316.86c-2.3326 5.4354-3.5513 9.0444-3.1086 9.7606.77464 1.2534 59.908 1.9203 170.37 1.9203h169.19v-10.209h-169.19c-96.472 0-153.77-.50801-167.27-1.4716z" opacity=".3"/><path d="m299.93 27.035c-67.562-.07123-118.76.42111-118.76 1.2063 0 .68478 6.2676 4.6193 15.059 9.5572 24.043-.46802 74.735-.68361 133.57-.48853l148.62.49451.49449 139c.0375 10.545.0611 20.626.0738 30.193-.005-12.629-.0222-25.888-.0738-40.402l-.49449-139-148.62-.49452c-10.217-.03388-20.204-.05562-29.856-.0658zm-260.47 20.903c-1.4962.04472-2.5812.17899-3.1904.41276-3.0154 1.1571-3.2482 13.343-3.2482 169.33 0 .99688.0018 1.9222.002 2.9152.0088-148.34.28369-160.9 3.2462-162.03 4.8736-1.8701 40.233 2.5749 72.4 9.1006 57.565 11.678 113.47 33.794 153.6 60.77 16.764 11.267 38.073 29.872 46.264 39.678 2.1909-2.4755 3.4604-4.1028 3.4615-4.5503.013-5.0667-28.535-31.094-49.726-45.337-40.137-26.977-96.034-49.093-153.6-60.77-28.146-5.7099-58.737-9.8263-69.209-9.5134zm296.14 138.38c-4.2122 0-72.099 68.61-93.275 94.27-36.365 44.065-62.627 81.46-89.847 127.94-19.131 32.668-39.317 73.368-37.692 75.996.0981.1588 1.1513.30887 3.1086.44865 6.2297-14.515 20.664-42.468 34.584-66.236 27.22-46.48 53.482-83.876 89.847-127.94 21.176-25.66 89.062-94.27 93.275-94.27 2.9937 0 23.939 23.458 39.694 44.458 49.785 66.356 79.058 155.09 79.058 239.65v-10.209c0-84.561-29.273-173.29-79.058-239.65-15.756-20.999-36.701-44.458-39.694-44.458z" fill="#fff" opacity=".2"/></g></svg>