<svg viewBox="0 0 512 512" xmlns="http://www.w3.org/2000/svg" xmlns:xlink="http://www.w3.org/1999/xlink"><filter id="a" color-interpolation-filters="sRGB" height="1.1118" width="1.1208" x="-.060418" y="-.055916"><feGaussianBlur stdDeviation="11.328648"/></filter><path d="m158.12 16.873a115.77 115.77 0 0 0 -115.77 115.59 115.77 115.77 0 0 0 -.002.18359 115.77 115.77 0 0 0 .002.31836 115.77 115.77 0 0 0 -.002.31445 115.77 115.77 0 0 0 .0039.084 115.77 115.77 0 0 0 115.77 115.05 115.77 115.77 0 0 0 115.77-115.77 115.77 115.77 0 0 0 -.002-.0586 115.77 115.77 0 0 0 -115.77-115.72zm207.1 147.93a115.77 115.77 0 0 0 -115.77 115.77 115.77 115.77 0 0 0 18.342 62.531 115.77 115.77 0 0 0 .48047.74414 115.77 115.77 0 0 0 .0117.0156 115.77 115.77 0 0 0 .98828 1.4902 115.77 115.77 0 0 0 .0117.0156 115.77 115.77 0 0 0 .49805.73242 115.77 115.77 0 0 0 .0117.0156 115.77 115.77 0 0 0 1.5508 2.2051 115.77 115.77 0 0 0 .0117.0156 115.77 115.77 0 0 0 1.0586 1.4434 115.77 115.77 0 0 0 .01.0137 115.77 115.77 0 0 0 .008.01 115.77 115.77 0 0 0 1.0879 1.4336 115.77 115.77 0 0 0 .54297.69922 115.77 115.77 0 0 0 .10156.1289 115.77 115.77 0 0 0 1.0234 1.2871 115.77 115.77 0 0 0 .0137.0156 115.77 115.77 0 0 0 .55859.68554 115.77 115.77 0 0 0 .0137.0156 115.77 115.77 0 0 0 .5625.68164 115.77 115.77 0 0 0 .0137.0156 115.77 115.77 0 0 0 .57031.67579 115.77 115.77 0 0 0 .0117.0156 115.77 115.77 0 0 0 .57617.67188 115.77 115.77 0 0 0 .56055.64843 115.77 115.77 0 0 0 .0371.043 115.77 115.77 0 0 0 .0469.0527 115.77 115.77 0 0 0 .54687.61914 115.77 115.77 0 0 0 .0137.0137 115.77 115.77 0 0 0 .58984.66016 115.77 115.77 0 0 0 .0137.0137 115.77 115.77 0 0 0 .59571.65429 115.77 115.77 0 0 0 .0137.0156 115.77 115.77 0 0 0 .59961.64844 115.77 115.77 0 0 0 .0137.0156 115.77 115.77 0 0 0 .60547.64453 115.77 115.77 0 0 0 .0137.0156 115.77 115.77 0 0 0 .61133.63867 115.77 115.77 0 0 0 .25.25781 115.77 115.77 0 0 0 1.0293 1.0508 115.77 115.77 0 0 0 .625.625 115.77 115.77 0 0 0 1.2949 1.2656 115.77 115.77 0 0 0 .0137.0137 115.77 115.77 0 0 0 .64062.61133 115.77 115.77 0 0 0 .30469.28711 115.77 115.77 0 0 0 .35352.33203 115.77 115.77 0 0 0 .0156.0137 115.77 115.77 0 0 0 .12695.11719 115.77 115.77 0 0 0 2.5312 2.2832 115.77 115.77 0 0 0 .0176.0176 115.77 115.77 0 0 0 .01.008 115.77 115.77 0 0 0 .66797.58008 115.77 115.77 0 0 0 .0156.0137 115.77 115.77 0 0 0 .67188.57422 115.77 115.77 0 0 0 .0156.0137 115.77 115.77 0 0 0 2.7812 2.2832 115.77 115.77 0 0 0 .0156.0137 115.77 115.77 0 0 0 1.4082 1.1016 115.77 115.77 0 0 0 3.6367 2.6914 115.77 115.77 0 0 0 .0156.0117 115.77 115.77 0 0 0 67.016 21.369 115.77 115.77 0 0 0 115.77-115.77 115.77 115.77 0 0 0 -.01-.27929 115.77 115.77 0 0 0 -.004-.29492 115.77 115.77 0 0 0 -115.77-115.2zm-218.46 106.75a115.77 115.77 0 0 0 -115.77 115.77 115.77 115.77 0 0 0 3.3789 27.764 115.77 115.77 0 0 0 .0098.0371 115.77 115.77 0 0 0 .21094.84179 115.77 115.77 0 0 0 .0098.0352 115.77 115.77 0 0 0 .2168.83984 115.77 115.77 0 0 0 .0098.0352 115.77 115.77 0 0 0 .22461.83789 115.77 115.77 0 0 0 .05273.19336 115.77 115.77 0 0 0 .95117 3.2852 115.77 115.77 0 0 0 .01172.0351 115.77 115.77 0 0 0 .25586.82813 115.77 115.77 0 0 0 .01172.0351 115.77 115.77 0 0 0 .26367.82618 115.77 115.77 0 0 0 .01172.0351 115.77 115.77 0 0 0 .27734.84961 115.77 115.77 0 0 0 .0039.0117 115.77 115.77 0 0 0 .27734.82227 115.77 115.77 0 0 0 .01172.0351 115.77 115.77 0 0 0 .2832.82031 115.77 115.77 0 0 0 .01172.0352 115.77 115.77 0 0 0 .28906.81641 115.77 115.77 0 0 0 .01172.0352 115.77 115.77 0 0 0 .29688.81641 115.77 115.77 0 0 0 .01172.0352 115.77 115.77 0 0 0 .30273.8125 115.77 115.77 0 0 0 108.38 75.076 115.77 115.77 0 0 0 115.77-115.77 115.77 115.77 0 0 0 -.008-.22266 115.77 115.77 0 0 0 -.006-.4707 115.77 115.77 0 0 0 -115.77-115.1z" filter="url(#a)" opacity=".3" stroke-width="1.6584" transform="matrix(.94706 0 0 .94706 13.557 9.7696)"/><g stroke-width="1.5706"><circle cx="359.44" cy="271.7" fill="#0ca15e" r="109.64"/><circle cx="152.55" cy="372.8" fill="#d41919" r="109.64"/><circle cx="163.31" cy="131.6" fill="#265ab1" r="109.64"/><circle cx="172.68" cy="151.05" fill="#1b3f7c" r="76.68"/><circle cx="337.96" cy="269.1" fill="#087142" r="76.68"/><circle cx="163.64" cy="354.29" fill="#951212" r="76.68"/></g><path d="m53.861 126.06a109.64 109.64 0 0 0 -.19607 5.551 109.64 109.64 0 0 0 109.64 109.64 109.64 109.64 0 0 0 109.64-109.64 109.64 109.64 0 0 0 -.19607-3.9325 109.64 109.64 0 0 1 -109.44 104.1 109.64 109.64 0 0 1 -109.44-105.72zm196.15 140.11a109.64 109.64 0 0 0 -.19608 5.538 109.64 109.64 0 0 0 109.64 109.64 109.64 109.64 0 0 0 109.64-109.64 109.64 109.64 0 0 0 -.19607-3.9196 109.64 109.64 0 0 1 -109.44 104.09 109.64 109.64 0 0 1 -109.44-105.71zm-206.89 101.12a109.64 109.64 0 0 0 -.19607 5.5381 109.64 109.64 0 0 0 109.64 109.64 109.64 109.64 0 0 0 109.64-109.64 109.64 109.64 0 0 0 -.19608-3.9196 109.64 109.64 0 0 1 -109.44 104.09 109.64 109.64 0 0 1 -109.44-105.71z" opacity=".3" stroke-width=".94706"/><path d="m163.31 22.567a109.64 109.64 0 0 0 -109.64 109.64 109.64 109.64 0 0 0 .19607 3.9196 109.64 109.64 0 0 1 109.44-104.09 109.64 109.64 0 0 1 109.44 105.71 109.64 109.64 0 0 0 .19607-5.5381 109.64 109.64 0 0 0 -109.64-109.64zm196.15 140.09a109.64 109.64 0 0 0 -109.64 109.64 109.64 109.64 0 0 0 .19608 3.9326 109.64 109.64 0 0 1 109.44-104.1 109.64 109.64 0 0 1 109.44 105.72 109.64 109.64 0 0 0 .19607-5.551 109.64 109.64 0 0 0 -109.64-109.64zm-206.89 101.12a109.64 109.64 0 0 0 -109.64 109.64 109.64 109.64 0 0 0 .19607 3.9325 109.64 109.64 0 0 1 109.44-104.1 109.64 109.64 0 0 1 109.44 105.72 109.64 109.64 0 0 0 .19608-5.551 109.64 109.64 0 0 0 -109.64-109.64z" fill="#fff" opacity=".2" stroke-width=".94706"/></svg>