<svg height="512" viewBox="0 0 384 384" width="512" xmlns="http://www.w3.org/2000/svg" xmlns:xlink="http://www.w3.org/1999/xlink"><filter id="a" color-interpolation-filters="sRGB" height="1.1664" width="1.0892" x="-.044606" y="-.083216"><feGaussianBlur stdDeviation="6.5517198"/></filter><filter id="b" height="1" width="1" x="0" y="0"><feColorMatrix in="SourceGraphic" values="0 0 0 0 1 0 0 0 0 1 0 0 0 0 1 0 0 0 1 0"/></filter><mask id="c"><g filter="url(#b)"><path d="m0 0h384v384h-384z" fill-opacity=".30196"/></g></mask><linearGradient id="d"><stop offset="0" stop-opacity="0"/><stop offset="1"/></linearGradient><linearGradient id="e" gradientTransform="matrix(-1.154 -1.1375 1.1375 -1.154 191.54 132.58)" gradientUnits="userSpaceOnUse" x1="-44" x2="-24" xlink:href="#d" y1="-24" y2="-24"/><clipPath id="f"><path d="m0 0h384v384h-384z"/></clipPath><linearGradient id="g" gradientTransform="matrix(2.3855 -2.4201 -2.4201 -2.3855 191.02 67.38)" gradientUnits="userSpaceOnUse" x1="-44" x2="-24" xlink:href="#d" y1="-24" y2="-24"/><path d="m192.01 100.53c-79.65 0-147.85 36.711-175.45 88.563-1.009 1.8966-1.0551 3.9918-.16406 5.9121.05535-.11928.10137-.2396.16406-.35741 26.571-49.93 90.787-85.813 166.63-88.408-.038.004-.0763.007-.11425.0102-75.79 2.6272-139.96 38.5-166.52 88.403-1.0717 2.0144-1.0717 4.2552 0 6.2695 27.597 51.852 95.79 88.563 175.45 88.563 79.653 0 147.85-36.71 175.45-88.563 1.0723-2.0148 1.0723-4.2562 0-6.271-.43119-.81019-.87184-1.6172-1.3228-2.4199.45018.8014.89221 1.6067 1.3228 2.4155.0627.11783.10868.2381.16406.35741.89115-1.9203.8454-4.015-.16406-5.9121-27.596-51.852-95.79-88.563-175.45-88.563zm6.4263 5.6382c75.651 1.8832 140.07 36.876 167.7 86.06-27.621-49.166-92.01-84.15-167.63-86.054-.0239-.002-.0479-.004-.0718-.006z" filter="url(#a)" opacity=".3" stroke-width=".75"/><path d="m275.62 194.36c0 34.525-37.797 62.51-84.423 62.51s-84.423-27.986-84.423-62.51 37.797-62.51 84.423-62.51 84.423 27.986 84.423 62.51z" fill="#d72e2e" stroke-width="1.0463"/><path d="m197.68 126.35c-64.8 0-120.14 29.843-142.56 71.971 22.42 42.127 77.758 71.971 142.56 71.971 64.8 0 120.14-29.843 142.56-71.971-22.424-42.127-77.763-71.971-142.56-71.971z" fill-opacity=".2" stroke-width=".88338"/><path d="m192 109.83c-74.864 0-138.8 34.478-164.7 83.151 25.902 48.669 89.834 83.151 164.7 83.151 74.864 0 138.8-34.479 164.7-83.151-25.902-48.669-89.834-83.151-164.7-83.151z" fill="#80c6ed" stroke="#2656a8" stroke-linejoin="round" stroke-width="19.876"/><path d="m192.24 119.71c69.257 0 127.87 31.171 153.16 73.213-25.287 42.044-83.905 73.213-153.16 73.213-69.257 0-127.87-31.171-153.16-73.213 25.287-42.044 83.905-73.213 153.16-73.213z" fill="#fff" opacity=".7"/><path d="m273.59 188.97c0 45.497-36.882 82.379-82.379 82.379s-82.379-36.882-82.379-82.379 36.882-82.379 82.379-82.379 82.379 36.882 82.379 82.379z" fill="#2656a8" stroke-width="1.2159"/><g clip-path="url(#f)" height="100%" mask="url(#c)" transform="matrix(2.0917 0 0 2.0917 -210.4 -206.75)" width="100%"><path d="m210.31 168.93-38.473 39.031c5.1875 5.6367 12.5 8.8477 20.16 8.8555 15.168 0 27.461-12.293 27.461-27.461-.0117-7.7969-3.3359-15.223-9.1484-20.426z" fill="url(#e)"/></g><path d="m152.85 144.27c-11.742 10.883-18.426 26.164-18.445 42.172 0 31.805 25.785 57.59 57.59 57.59 16.297-.0234 31.82-6.9531 42.723-19.066z" fill="url(#g)" height="100%" opacity=".3" transform="matrix(.99097 0 0 .99097 1.1903 4.2726)" width="100%"/><path d="m240.38 143.55a13.854 13.854 0 0 0 -13.855 13.855 13.854 13.854 0 0 0 13.855 13.854 13.854 13.854 0 0 0 13.855-13.854 13.854 13.854 0 0 0 -13.855-13.855zm-26.434 23.567a7.3252 7.3252 0 0 0 -7.3251 7.3252 7.3252 7.3252 0 0 0 7.3251 7.3252 7.3252 7.3252 0 0 0 7.3252-7.3252 7.3252 7.3252 0 0 0 -7.3252-7.3252z" fill="#fff" opacity=".3" stroke-width=".51754"/><path d="m192 101.27c-79.65 0-147.85 36.712-175.45 88.564-1.009 1.8966-1.0551 3.9912-.16406 5.9115.05535-.11928.10137-.2401.16406-.35792 27.595-51.854 95.79-88.564 175.45-88.564s147.85 36.712 175.45 88.564c.0627.11784.10868.23861.16406.35792.89115-1.9203.8454-4.0144-.16406-5.9115-27.596-51.852-95.79-88.564-175.45-88.564z" fill="#f1caca" opacity=".2" stroke-width=".64537"/><path d="m189.65 140.11v54.044h-54.044v4.6934h54.044v54.044h4.6934v-54.044h54.044v-4.6934h-54.044v-54.044z"/><path d="m252.87 180.81v72.059h-72.059v6.2578h72.059v72.059h6.2578v-72.059h72.059v-6.2578h-72.059v-72.059z" fill="#80c6ed" transform="scale(.75)"/></svg>